<svg width="50" height="60" viewBox="0 0 50 60" fill="none" xmlns="http://www.w3.org/2000/svg">
<g clip-path="url(#clip0_401_1443)">
<path d="M13.9732 56.0661L14.979 49.6776L12.7386 49.6257H2.04053L9.47514 2.48536C9.49822 2.34305 9.57322 2.21036 9.68284 2.11612C9.79245 2.02189 9.93284 1.96997 10.079 1.96997H28.1175C34.106 1.96997 38.2387 3.21612 40.3964 5.67574C41.4079 6.82959 42.0521 8.03536 42.3637 9.36228C42.6906 10.7546 42.6964 12.418 42.3771 14.4469L42.354 14.595V15.895L43.3656 16.468C44.2175 16.92 44.8944 17.4373 45.4137 18.0296C46.279 19.0161 46.8387 20.27 47.0752 21.7565C47.3194 23.2853 47.2387 25.1046 46.8387 27.1642C46.3771 29.5334 45.631 31.5969 44.6233 33.2853C43.6964 34.8411 42.5156 36.1315 41.1137 37.1315C39.7752 38.0815 38.1848 38.8026 36.3867 39.2642C34.6444 39.718 32.6579 39.9469 30.479 39.9469H29.0752C28.0714 39.9469 27.0964 40.3084 26.331 40.9565C25.5637 41.618 25.056 42.5219 24.9002 43.5103L24.7944 44.0853L23.0175 55.345L22.9367 55.7584C22.9156 55.8892 22.879 55.9546 22.8252 55.9988C22.7771 56.0392 22.7079 56.0661 22.6406 56.0661H13.9732Z" fill="#253B80"/>
<path d="M44.3233 14.7441C44.2694 15.0884 44.2079 15.4403 44.1387 15.8018C41.7598 28.0153 33.6214 32.2345 23.2271 32.2345H17.9349C16.6637 32.2345 15.5925 33.1576 15.3945 34.4115L12.6849 51.5961L11.9175 56.4672C11.7887 57.2903 12.4233 58.0326 13.2541 58.0326H22.6406C23.7521 58.0326 24.6964 57.2249 24.8714 56.1288L24.9637 55.6518L26.731 44.4365L26.8444 43.8211C27.0175 42.7211 27.9637 41.9134 29.0752 41.9134H30.479C39.5733 41.9134 46.6925 38.2211 48.7733 27.5365C49.6425 23.073 49.1925 19.3461 46.8925 16.7249C46.1964 15.9345 45.3329 15.2788 44.3233 14.7441Z" fill="#179BD7"/>
<path d="M41.8344 13.752C41.471 13.6463 41.096 13.5501 40.7113 13.4636C40.3248 13.379 39.9287 13.304 39.521 13.2386C38.094 13.0078 36.5306 12.8982 34.8556 12.8982H20.7171C20.369 12.8982 20.0383 12.977 19.7421 13.1193C19.0902 13.4328 18.6056 14.0501 18.4883 14.8059L15.4806 33.8558L15.394 34.4116C15.5921 33.1577 16.6633 32.2347 17.9344 32.2347H23.2267C33.621 32.2347 41.7594 28.0135 44.1383 15.802C44.2094 15.4405 44.269 15.0886 44.3229 14.7443C43.721 14.4251 43.069 14.152 42.3671 13.9193C42.194 13.8617 42.0152 13.8059 41.8344 13.752Z" fill="#222D65"/>
<path d="M18.4884 14.8058C18.6058 14.05 19.0904 13.4327 19.7423 13.1212C20.0404 12.9788 20.3692 12.9 20.7173 12.9H34.8558C36.5308 12.9 38.0942 13.0096 39.5212 13.2404C39.9288 13.3058 40.325 13.3808 40.7115 13.4654C41.0962 13.5519 41.4712 13.6481 41.8346 13.7538C42.0154 13.8077 42.1942 13.8635 42.3692 13.9192C43.0712 14.1519 43.7231 14.4269 44.325 14.7442C45.0327 10.2308 44.3192 7.15769 41.8788 4.375C39.1885 1.31154 34.3327 0 28.1192 0H10.0808C8.81152 0 7.72883 0.923077 7.53267 2.17885L0.0192093 49.8038C-0.128868 50.7462 0.598056 51.5962 1.54806 51.5962H12.6846L15.4808 33.8558L18.4884 14.8058Z" fill="#253B80"/>
</g>
<defs>
<clipPath id="clip0_401_1443">
<rect width="50" height="59.6154" fill="white"/>
</clipPath>
</defs>
</svg>
