<svg width="50" height="40" viewBox="0 0 50 40" fill="none" xmlns="http://www.w3.org/2000/svg">
<g clip-path="url(#clip0_401_29)">
<path d="M7.70733 27.5552L5.09183 28.5108L4.95264 36.2908L14.0062 32.9835C10.8983 31.9427 8.6318 30.1084 7.70733 27.5552Z" fill="#FDBD39"/>
<path d="M9.07637 19.3267L0 22.6423L5.09182 28.5131L7.70733 27.5575C6.78494 25.0126 7.35416 22.1395 9.07637 19.3267Z" fill="#F69833"/>
<path d="M24.3479 8.09799C12.791 12.3194 5.33922 21.0322 7.70751 27.5554L49.5577 12.2674C47.1894 5.74424 35.9047 3.87661 24.3479 8.09799Z" fill="#FECF33"/>
<path d="M32.9149 31.7269C44.4717 27.5055 51.936 18.8322 49.5553 12.2695L7.70508 27.5554C10.0858 34.1201 21.3581 35.9483 32.9149 31.7269Z" fill="#EE6723"/>
<path d="M49.5556 12.2671L7.70752 27.555C8.52603 29.8153 11.6526 30.9288 16.036 30.9288C20.3114 30.9288 25.7834 29.8714 31.4881 27.7877C43.0449 23.5663 51.1739 16.7294 49.5556 12.2671Z" fill="#F69833"/>
<path d="M41.2268 8.89551C36.9535 8.89551 31.4795 9.95293 25.7748 12.0366C14.218 16.258 6.08891 23.0928 7.70724 27.5551L49.5574 12.2672C48.7368 10.0069 45.6123 8.89551 41.2268 8.89551Z" fill="#FDBD39"/>
<path d="M38.9147 36.7044C37.6828 36.7044 35.8671 35.593 33.5154 33.3992C30.7337 30.8045 27.549 27.0028 24.5429 22.6962C21.539 18.3897 19.071 14.0852 17.5918 10.5722C15.9818 6.74557 15.7512 4.3939 16.9083 3.57954C17.1763 3.39672 17.4942 3.30323 17.8183 3.31154C18.7593 3.31154 20.5958 4.01164 23.9883 7.35218L24.0631 7.42489L24.0527 7.52876C24.0298 7.76975 24.009 8.01073 23.9903 8.24964L23.953 8.72122L23.6206 8.38675C19.9643 4.70343 18.3563 4.30664 17.8328 4.30664C17.6832 4.30664 17.5648 4.33573 17.4796 4.39597C16.9769 4.74914 16.9436 6.47757 18.5059 10.1858C19.958 13.6344 22.3907 17.8744 25.3552 22.1249C28.3218 26.3774 31.4588 30.121 34.1927 32.67C37.1385 35.4185 38.466 35.7156 38.9002 35.7156C39.0498 35.7156 39.1703 35.6844 39.2617 35.62C39.7914 35.2481 39.7914 33.3971 38.0505 29.4043L37.9695 29.2215L38.144 29.1259C38.3185 29.0303 38.4889 28.9369 38.6467 28.8454L38.8566 28.727L38.9542 28.9472C40.1882 31.7767 41.3433 35.3728 39.8288 36.4364C39.5608 36.6193 39.2409 36.7127 38.9147 36.7044ZM38.9147 36.2682V36.4863V36.2682Z" fill="#EE6723"/>
<path d="M33.1954 31.6064L33.1787 31.8225C32.8858 35.4372 32.1172 39.7832 30.1104 39.9598C30.0688 39.964 30.0273 39.964 29.9878 39.964C28.625 39.964 27.3349 38.0112 26.157 34.1617C25.0393 30.5178 24.173 25.6275 23.7181 20.3903C23.261 15.153 23.2672 10.1858 23.7367 6.40282C24.2478 2.28116 25.22 0.128926 26.6286 0.00427922C26.6701 0.000124322 26.7137 -0.00195312 26.7553 -0.00195312C27.7441 -0.00195312 29.2337 1.11779 30.7585 6.33218L29.7634 6.52331C29.2544 4.78241 28.6998 3.36559 28.1492 2.38919C27.6403 1.48965 27.1438 0.993144 26.7553 0.993144C26.7428 0.993144 26.7303 0.993144 26.7158 0.995222C26.105 1.04924 25.2159 2.52838 24.7215 6.52539C24.2603 10.2399 24.254 15.1343 24.7048 20.303C25.1556 25.4738 26.0074 30.2914 27.1043 33.8687C27.5946 35.4705 28.1326 36.7917 28.6624 37.6871C29.1485 38.5139 29.6201 38.9689 29.9878 38.9689C30.0003 38.9689 30.0127 38.9689 30.0252 38.9668C30.6089 38.9169 31.71 37.3755 32.1733 31.9554L33.1954 31.6064Z" fill="#EE6723"/>
</g>
<defs>
<clipPath id="clip0_401_29">
<rect width="50" height="39.9659" fill="white"/>
</clipPath>
</defs>
</svg>
