<svg width="50" height="36" viewBox="0 0 50 36" fill="none" xmlns="http://www.w3.org/2000/svg">
<g clip-path="url(#clip0_401_2703)">
<path d="M49.5069 13.5706C49.3713 13.4627 48.1053 12.505 45.4356 12.505C44.7307 12.5081 44.0274 12.5687 43.3321 12.6862C42.8155 9.13769 39.8874 7.40761 39.7562 7.32999L39.0392 6.91577L38.5677 7.59747C37.9774 8.5132 37.5464 9.52265 37.2932 10.583C36.8153 12.6085 37.1058 14.5111 38.1328 16.1376C36.8927 16.83 34.9035 17.0005 34.5009 17.0155H1.56513C0.704859 17.0167 0.00678875 17.7133 0.00210043 18.5752C-0.0363159 21.4661 0.452529 24.3398 1.44457 27.0548C2.57914 30.036 4.26708 32.232 6.4631 33.576C8.92391 35.086 12.9219 35.9488 17.4539 35.9488C19.5013 35.9552 21.5447 35.7696 23.5575 35.3944C26.3555 34.8796 29.048 33.8999 31.5234 32.4951C33.5631 31.3117 35.3987 29.8061 36.9597 28.0364C39.569 25.0767 41.1235 21.7805 42.2796 18.8513H42.7401C45.5973 18.8513 47.354 17.7058 48.3228 16.7459C48.9666 16.1337 49.4693 15.3879 49.7954 14.5607L50 13.9611L49.5069 13.5706Z" fill="#218BEA"/>
<path d="M4.61779 16.0492H9.03131C9.24417 16.0492 9.41666 15.8763 9.41666 15.6631V11.7241C9.41786 11.5108 9.24627 11.337 9.03348 11.3358C9.03279 11.3358 9.032 11.3358 9.03131 11.3358H4.61779C4.40492 11.3358 4.23242 11.5087 4.23242 11.7219V15.663C4.23242 15.8763 4.40492 16.0492 4.61779 16.0492Z" fill="#218BEA"/>
<path d="M10.7001 16.0492H15.1136C15.3265 16.0492 15.499 15.8763 15.499 15.6631V11.7241C15.5002 11.5108 15.3286 11.337 15.1157 11.3358C15.115 11.3358 15.1143 11.3358 15.1136 11.3358H10.7C10.486 11.3358 10.3125 11.5096 10.3125 11.7241V15.663C10.3138 15.8767 10.4869 16.0492 10.7001 16.0492Z" fill="#218BEA"/>
<path d="M16.8747 16.0492H21.2881C21.5011 16.0492 21.6735 15.8763 21.6735 15.6631V11.7241C21.6748 11.5108 21.5031 11.337 21.2903 11.3358C21.2896 11.3358 21.2889 11.3358 21.2881 11.3358H16.8746C16.6618 11.3358 16.4893 11.5087 16.4893 11.7219V15.663C16.4893 15.8763 16.6619 16.0492 16.8747 16.0492Z" fill="#218BEA"/>
<path d="M22.976 16.0492H27.3895C27.6029 16.0492 27.776 15.8767 27.7771 15.6631V11.7241C27.7771 11.5096 27.6036 11.3358 27.3895 11.3358H22.976C22.7633 11.3358 22.5908 11.5087 22.5908 11.7219V15.663C22.5908 15.8763 22.7633 16.0492 22.976 16.0492Z" fill="#218BEA"/>
<path d="M10.7 10.3822H15.1135C15.3267 10.3811 15.4989 10.2075 15.4989 9.99398V6.05504C15.4989 5.84177 15.3263 5.66895 15.1135 5.66895H10.7C10.4869 5.66895 10.3137 5.84143 10.3125 6.05504V9.99398C10.3137 10.208 10.4864 10.3811 10.7 10.3822Z" fill="#218BEA"/>
<path d="M16.8746 10.3822H21.2881C21.5012 10.3811 21.6735 10.2075 21.6735 9.99398V6.05504C21.6735 5.84177 21.501 5.66895 21.2881 5.66895H16.8746C16.6617 5.66895 16.4893 5.84185 16.4893 6.05504V9.99398C16.4893 10.2075 16.6615 10.3811 16.8746 10.3822Z" fill="#218BEA"/>
<path d="M22.976 10.3822H27.3895C27.6032 10.3811 27.776 10.208 27.7771 9.99398V6.05504C27.776 5.84143 27.6029 5.66895 27.3895 5.66895H22.976C22.7633 5.66895 22.5908 5.84185 22.5908 6.05504V9.99398C22.5908 10.2075 22.7629 10.3811 22.976 10.3822Z" fill="#218BEA"/>
<path d="M22.976 4.71338H27.3895C27.6029 4.71338 27.776 4.54084 27.7771 4.32728V0.386104C27.776 0.172474 27.6029 0 27.3895 0H22.976C22.7633 0 22.5908 0.172825 22.5908 0.386104V4.32721C22.5908 4.54049 22.7633 4.71338 22.976 4.71338Z" fill="#218BEA"/>
<path d="M29.1313 16.0492H33.5448C33.7581 16.0492 33.9313 15.8767 33.9324 15.6631V11.7241C33.9324 11.5096 33.7589 11.3358 33.5448 11.3358H29.1313C28.9185 11.3358 28.7461 11.5087 28.7461 11.7219V15.663C28.7461 15.8763 28.9185 16.0492 29.1313 16.0492Z" fill="#218BEA"/>
</g>
<defs>
<clipPath id="clip0_401_2703">
<rect width="50" height="35.9489" fill="white"/>
</clipPath>
</defs>
</svg>
