<svg width="50" height="50" viewBox="0 0 50 50" fill="none" xmlns="http://www.w3.org/2000/svg">
<g clip-path="url(#clip0_401_1241)">
<path d="M28.1842 0.20364C23.2799 -0.426166 18.2989 0.412528 13.8711 2.61367C9.44343 4.81482 5.76788 8.27951 3.3093 12.5697C0.850759 16.8599 -0.280378 21.7826 0.0589497 26.7156C0.398276 31.6485 2.19283 36.3703 5.21567 40.2831C8.23849 44.1965 12.3538 47.1253 17.0413 48.6994C21.7286 50.2735 26.7775 50.4221 31.5494 49.1267C36.3215 47.8314 40.6023 45.15 43.8503 41.4218C47.0983 37.6933 49.1674 33.0858 49.7968 28.1811C50.6404 21.6051 48.8372 14.9634 44.7843 9.71671C40.7311 4.47 34.7602 1.0481 28.1842 0.20364Z" fill="#FF6C37"/>
<path d="M18.0742 26.5798C18.0839 26.5996 18.1003 26.6154 18.1203 26.6244C18.1403 26.6337 18.1629 26.6355 18.1842 26.6298L22.1842 25.7673L20.5017 24.0623L18.1042 26.4598C18.0853 26.4726 18.0718 26.4918 18.0662 26.514C18.0607 26.5362 18.0636 26.5596 18.0742 26.5798Z" fill="white"/>
<path d="M36.8044 9.40505C36.2468 9.4056 35.6968 9.53121 35.1942 9.77255C34.6916 10.0139 34.2497 10.3649 33.9009 10.7997C33.552 11.2344 33.3052 11.7419 33.1785 12.2848C33.0515 12.8276 33.048 13.3919 33.1683 13.9363C33.2887 14.4806 33.5294 14.991 33.8727 15.43C34.2163 15.8689 34.6541 16.2252 35.1535 16.4727C35.6532 16.7202 36.2018 16.8524 36.7593 16.8597C37.3166 16.8671 37.8683 16.7493 38.3744 16.515L35.8392 13.98C35.8102 13.951 35.7872 13.9165 35.7715 13.8786C35.7555 13.8406 35.7474 13.7999 35.7474 13.7588C35.7474 13.7177 35.7555 13.677 35.7715 13.639C35.7872 13.6011 35.8102 13.5666 35.8392 13.5375L39.1518 10.2275C38.4866 9.69266 37.6579 9.40232 36.8044 9.40505Z" fill="white"/>
<path d="M39.6069 10.6575L36.502 13.75L38.9368 16.185C39.1162 16.059 39.2836 15.9167 39.4368 15.76C40.1043 15.0881 40.4927 14.1886 40.5243 13.2421C40.5557 12.2956 40.2281 11.3723 39.6069 10.6575Z" fill="white"/>
<path d="M33.3939 16.365H33.339C33.2744 16.3644 33.2099 16.3703 33.1465 16.3825H33.1241C33.0544 16.3975 32.9861 16.4175 32.9189 16.4425L32.8666 16.4675C32.8163 16.4885 32.7678 16.5135 32.7215 16.5425L32.6666 16.5775C32.6061 16.6193 32.5491 16.6661 32.4965 16.7175L23.2891 25.9274L24.4291 27.0674L34.1791 18.51C34.2343 18.4616 34.2843 18.408 34.3291 18.35L34.3715 18.295C34.405 18.2461 34.4349 18.1952 34.4616 18.1425C34.4765 18.1125 34.489 18.0825 34.5015 18.0525C34.5183 18.0125 34.5326 17.9716 34.5439 17.93C34.5439 17.9 34.5616 17.87 34.5689 17.84C34.5814 17.778 34.5898 17.7155 34.5939 17.6525V17.57C34.5939 17.525 34.5939 17.48 34.5939 17.435C34.5939 17.39 34.5939 17.375 34.5814 17.345C34.5352 17.1091 34.4201 16.892 34.2506 16.7216C34.0811 16.5513 33.8648 16.4349 33.6291 16.3875H33.5814C33.5198 16.3755 33.457 16.368 33.3939 16.365Z" fill="white"/>
<path d="M20.9316 23.6199L22.8216 25.4999L32.0541 16.2674C32.3547 15.9736 32.7463 15.7911 33.164 15.7499C31.5318 14.4999 29.7515 14.8274 20.9316 23.6199Z" fill="white"/>
<path d="M34.6994 18.8701L34.5869 18.9801L24.8369 27.5351L26.4944 29.1901C30.6043 25.3026 34.252 21.6001 34.6994 18.8701Z" fill="white"/>
<path d="M10.3795 38.9124C10.3845 38.9302 10.3949 38.9459 10.4092 38.9575C10.4235 38.9691 10.4411 38.9761 10.4595 38.9773L14.7094 39.2697L12.327 36.8875L10.3995 38.8125C10.387 38.8255 10.3784 38.8418 10.3749 38.8593C10.3713 38.8773 10.3729 38.8956 10.3795 38.9124Z" fill="white"/>
<path d="M12.7715 36.4451L15.284 38.9576C15.3138 38.9893 15.3537 39.0099 15.3969 39.016C15.4402 39.0218 15.4842 39.0125 15.5215 38.9898C15.5604 38.9707 15.5915 38.9384 15.6092 38.8989C15.6271 38.859 15.6305 38.8143 15.619 38.7724L15.1965 36.9675C15.1691 36.8503 15.1815 36.7276 15.2318 36.6186C15.2821 36.5096 15.3673 36.4204 15.474 36.3648C19.879 34.1576 23.4315 31.8849 26.039 29.6148L24.289 27.865L20.539 28.6725L12.7715 36.4451Z" fill="white"/>
<path d="M23.7521 27.335L22.8121 26.395L21.5121 27.6925C21.5027 27.7038 21.4976 27.718 21.4976 27.7325C21.4976 27.7472 21.5027 27.7613 21.5121 27.7725C21.518 27.7858 21.5288 27.7966 21.5421 27.8025C21.5555 27.8085 21.5705 27.8094 21.5846 27.805L23.7521 27.335Z" fill="white"/>
<path d="M39.694 12.6726C39.6812 12.6332 39.66 12.5971 39.6321 12.5666C39.6042 12.536 39.5702 12.5119 39.5321 12.4957C39.494 12.4794 39.453 12.4715 39.4115 12.4725C39.3702 12.4735 39.3295 12.4833 39.2923 12.5013C39.2551 12.5193 39.2219 12.5451 39.1955 12.5769C39.169 12.6087 39.1495 12.6458 39.1388 12.6857C39.1277 12.7256 39.1254 12.7674 39.1321 12.8082C39.1385 12.8491 39.1536 12.8881 39.1766 12.9226C39.2513 13.0729 39.2809 13.2417 39.2618 13.4084C39.2429 13.5753 39.1757 13.733 39.069 13.8626C39.0341 13.9049 39.0118 13.9564 39.0048 14.0109C38.9978 14.0654 39.0065 14.1208 39.0298 14.1706C39.053 14.2204 39.0902 14.2625 39.1365 14.2921C39.1827 14.3216 39.2368 14.3374 39.2914 14.3376C39.3341 14.3371 39.376 14.3275 39.4144 14.3094C39.4527 14.2912 39.4868 14.265 39.5141 14.2326C39.6911 14.0174 39.8022 13.7558 39.8341 13.4791C39.8658 13.2024 39.8173 12.9223 39.694 12.6726Z" fill="#FF6C37"/>
</g>
<defs>
<clipPath id="clip0_401_1241">
<rect width="50" height="50" fill="white"/>
</clipPath>
</defs>
</svg>
