<svg width="50" height="49" viewBox="0 0 50 49" fill="none" xmlns="http://www.w3.org/2000/svg">
<g clip-path="url(#clip0_401_2376)">
<path d="M49.0446 19.2262L48.9778 19.0478L42.2262 1.43637C42.0896 1.09056 41.8462 0.797213 41.5319 0.598786C41.2972 0.448585 41.0306 0.355442 40.7536 0.326821C40.4765 0.298198 40.1966 0.334894 39.936 0.433968C39.6759 0.533044 39.4421 0.691738 39.2542 0.897337C39.0663 1.10293 38.929 1.34971 38.8536 1.61789L34.2962 15.5701H15.8408L11.2835 1.61789C11.2074 1.35011 11.0699 1.1038 10.8818 0.898595C10.6938 0.693391 10.4603 0.534977 10.2001 0.435983C9.93996 0.33699 9.66028 0.300157 9.38334 0.328423C9.10643 0.356691 8.83993 0.44927 8.60512 0.598786C8.2907 0.797213 8.04751 1.09056 7.91086 1.43637L1.16246 19.051L1.0924 19.2262C0.120823 21.7654 0.00112858 24.5516 0.751358 27.1648C1.50158 29.7779 3.08107 32.0764 5.25165 33.7134L5.27713 33.7325L5.33442 33.7771L15.6051 41.4745L20.7007 45.3248L23.7962 47.6656C24.1594 47.9401 24.6022 48.0885 25.0574 48.0885C25.5125 48.0885 25.9553 47.9401 26.3185 47.6656L29.414 45.3248L34.5096 41.4745L44.8536 33.7325L44.8822 33.7102C47.0526 32.0739 48.6322 29.7761 49.3832 27.1636C50.1338 24.5511 50.015 21.7653 49.0446 19.2262Z" fill="#E24329"/>
<path d="M49.0448 19.2262L48.9779 19.0479C45.6884 19.7229 42.5888 21.1171 39.9015 23.1307L25.0767 34.3408L34.5161 41.4746L44.8601 33.7325L44.8888 33.7102C47.0582 32.073 48.6365 29.7749 49.3862 27.1624C50.1356 24.55 50.0158 21.7646 49.0448 19.2262Z" fill="#FC6D26"/>
<path d="M15.605 41.4746L20.7005 45.3249L23.7961 47.6657C24.1593 47.9402 24.602 48.0886 25.0572 48.0886C25.5124 48.0886 25.9551 47.9402 26.3184 47.6657L29.4139 45.3249L34.5094 41.4746L25.0699 34.3408L15.605 41.4746Z" fill="#FCA326"/>
<path d="M10.2357 23.1306C7.54926 21.1181 4.45079 19.7249 1.16246 19.051L1.0924 19.2262C0.120823 21.7654 0.00112858 24.5516 0.751358 27.1648C1.50158 29.7779 3.08107 32.0764 5.25165 33.7134L5.27713 33.7325L5.33442 33.777L15.6051 41.4745L25.051 34.3407L10.2357 23.1306Z" fill="#FC6D26"/>
</g>
<defs>
<clipPath id="clip0_401_2376">
<rect width="50" height="48.0892" fill="white"/>
</clipPath>
</defs>
</svg>
